<svg width="1024" height="1024" viewBox="0 0 1024 1024" fill="none" xmlns="http://www.w3.org/2000/svg">
<path d="M448.5 452L430.5 433.5L512.5 354.5L593 433.5L574.5 451.5L512.5 390.5L448.5 452Z" fill="#FAFAFA"/>
<path d="M553 135.5C625 150 678.5 203.5 690 281H587.5C580 253 561.5 230 528.5 223.5V111H492V222C445.5 222 412 251.5 416.5 281C421.915 316.5 461.936 328.033 559 344.5C669 371.5 717 423.5 713 519C703 600 649 654 552.5 669V717H467.5V666.5C365.5 648 303.5 581 299 494H399.5C414 547.5 440 568.5 492 578.5V693.5H528.5V578.5C583 575.5 611 556.5 611 519C611 489 590.725 473.704 556.5 462.5V433.5L575.5 451L593 433.5L512.5 355L437 427.5C357.5 413 309.257 358 317 281C326 191.5 392 140 468 135.5V86.5H553V135.5Z" fill="#07A262"/>
<path d="M511 423.5L490.5 444L544 457L511 423.5Z" fill="#07A262"/>
<path d="M205 782.241V795.5H257C262 795.5 266 800 266 805.5C266 810.5 261.5 815 257 815H205V905.5C205 912 202 916.5 195.5 916.5C189.5 916.5 186.5 912 186.5 905.5V815H181C176 815 171 811.5 171 805.5C171 800 175.5 795.5 181 795.5H186.5V779.5C186.5 762 202 741 223.5 741L264.5 740.5C269.5 740.5 273.5 745 273.5 750.5C273.5 755.5 269.5 759.5 264.5 759.5H223.5C212.5 759.5 205.5 769.5 205 782.241Z" fill="#07A262"/>
<path d="M378.5 839.5C378.5 799.5 329.5 777.5 301.5 806.5V801C298.388 796.354 296.502 795.37 291.5 795.5C286.182 795.986 284.222 797.535 282.5 802.5V905.5C282.5 921.5 301.5 921.5 301.5 905.5V848C300.5 803 359.5 801 359.5 848V905.5C359.5 920 378.5 920 378.5 905.5V839.5Z" fill="#07A262"/>
<path d="M480 825.5C459 801.5 421 814.5 421 841V868.5C421 900.5 461.5 910.5 480 884.5C489 874 503 883 496.5 894.5C468 936 401.5 919 401.5 868.5L401.5 841C401.5 799 462.5 772.5 495.5 814.5C503 827 488 834.643 480 825.5Z" fill="#FAFAFA"/>
<path d="M671.5 796H701C718 796 735.679 812.565 728.5 820.5C719 831 711 814.5 698 814.5H674C656 814.5 656 845 674 845H702C747 845 746 915.5 702 915.5H674C663 915 656.4 910.771 648.5 904C641.5 898 641.5 886.367 648.5 884.5C661 881.167 659.5 895.5 675.5 897H698C722.5 897 723 863.5 698 863.5H671.5C633 863.5 632.5 796 671.5 796Z" fill="#FAFAFA"/>
<path d="M756 905V752.5C756 737.5 775.5 737.5 775.5 752.5V806C804 779.5 850.5 797 850.5 838V905C850.5 921 831.5 921 831.5 905V839.5C831.5 803 775.5 804 775.5 842V905C775.5 921 756 921 756 905Z" fill="#FAFAFA"/>
<path d="M591 892L589 893.5L599 908L601 907L591 892Z" fill="#FAFAFA"/>
<path d="M563.5 917C579.041 917.438 586.917 915.303 600 907.5L589.5 893C582.773 897.956 578.363 899.688 568.5 899.5C544.611 895.386 538 886 538 854.5C538 825.996 546.5 813 568.5 813C594 813 602 825 602 854.5C602 874 601.25 883.111 590.5 892.5L600.5 907C600.5 913 605.5 917 611 917C618 917 620.5 912.5 620.5 905V854.5C624.5 813 601.5 793.5 568.5 793.5C537 793.5 519.614 816.5 519.5 854.5C519.386 892.5 536 914 563.5 917Z" fill="#FAFAFA"/>
</svg>
